<svg width="261" height="52" viewBox="0 0 261 52" fill="none" xmlns="http://www.w3.org/2000/svg">
<path d="M30.7168 11.0039C30.7168 9.32812 30.1836 8.10091 29.1172 7.32227C28.0677 6.54362 26.6797 6.1543 24.9531 6.1543C24.6146 6.1543 24.2168 6.17122 23.7598 6.20508C23.3027 6.22201 22.9473 6.23893 22.6934 6.25586L19.5449 19.8145H21.2461C24.1576 19.8145 26.4596 19.0104 28.1523 17.4023C29.862 15.7773 30.7168 13.6445 30.7168 11.0039ZM28.7363 28.0918C28.7363 26.1452 28.11 24.6556 26.8574 23.623C25.6048 22.5736 23.7513 22.0488 21.2969 22.0488C20.9583 22.0488 20.5352 22.0658 20.0273 22.0996C19.5365 22.1165 19.1979 22.1335 19.0117 22.1504L15.9141 35.5566C15.931 36.1829 16.3965 36.7161 17.3105 37.1562C18.2246 37.5964 19.2402 37.8164 20.3574 37.8164C22.6087 37.8164 24.5638 36.9108 26.2227 35.0996C27.8984 33.2884 28.7363 30.9525 28.7363 28.0918ZM28.0508 3.9707C32.401 3.9707 35.5918 4.51237 37.623 5.5957C39.6712 6.66211 40.6953 8.30404 40.6953 10.5215C40.6953 11.9941 40.3652 13.2891 39.7051 14.4062C39.0618 15.5234 38.207 16.4629 37.1406 17.2246C36.0742 18.0033 34.8385 18.6549 33.4336 19.1797C32.0456 19.7044 30.6068 20.1191 29.1172 20.4238L29.0156 20.9062C30.1836 21.0247 31.3685 21.2786 32.5703 21.668C33.7891 22.0404 34.8301 22.5228 35.6934 23.1152C36.6243 23.7415 37.3607 24.5033 37.9023 25.4004C38.444 26.2975 38.7148 27.3893 38.7148 28.6758C38.7148 32.3828 37.1576 35.2012 34.043 37.1309C30.9453 39.0436 26.3665 40 20.3066 40H0.603516L1.03516 38.1465C1.45833 38.1296 2.08464 38.0703 2.91406 37.9688C3.76042 37.8503 4.38672 37.7233 4.79297 37.5879C5.45312 37.3678 5.95247 37.0378 6.29102 36.5977C6.64648 36.1576 6.89193 35.6413 7.02734 35.0488L12.8418 9.86133C12.9264 9.50586 12.9857 9.20964 13.0195 8.97266C13.0534 8.73568 13.0703 8.55794 13.0703 8.43945C13.0703 7.72852 12.7064 7.17839 11.9785 6.78906C11.2676 6.38281 10.0996 6.0612 8.47461 5.82422L8.90625 3.9707H28.0508ZM72.8652 24.791C72.8652 26.9238 72.459 28.9635 71.6465 30.9102C70.834 32.8568 69.6829 34.5495 68.1934 35.9883C66.5853 37.5286 64.6979 38.722 62.5312 39.5684C60.3815 40.3978 57.9609 40.8125 55.2695 40.8125C51.6641 40.8125 48.7526 39.8561 46.5352 37.9434C44.3177 36.0137 43.209 33.39 43.209 30.0723C43.209 27.821 43.6237 25.7305 44.4531 23.8008C45.2995 21.8711 46.4759 20.1868 47.9824 18.748C49.472 17.3431 51.3001 16.2344 53.4668 15.4219C55.6335 14.5924 57.9779 14.1777 60.5 14.1777C64.3255 14.1777 67.3385 15.1172 69.5391 16.9961C71.7565 18.8581 72.8652 21.4564 72.8652 24.791ZM63.9277 21.9219C63.9277 19.9414 63.5892 18.4857 62.9121 17.5547C62.252 16.6237 61.2871 16.1582 60.0176 16.1582C58.7142 16.1582 57.5208 16.6829 56.4375 17.7324C55.3542 18.765 54.474 20.2884 53.7969 22.3027C53.2044 23.9785 52.7812 25.7982 52.5273 27.7617C52.2734 29.7083 52.1465 31.4518 52.1465 32.9922C52.1465 35.0404 52.485 36.5299 53.1621 37.4609C53.8392 38.375 54.821 38.832 56.1074 38.832C57.4954 38.832 58.6973 38.265 59.7129 37.1309C60.7285 35.9967 61.5326 34.6003 62.125 32.9414C62.7174 31.3164 63.166 29.5221 63.4707 27.5586C63.7754 25.5781 63.9277 23.6992 63.9277 21.9219ZM105.924 24.791C105.924 26.9238 105.518 28.9635 104.705 30.9102C103.893 32.8568 102.742 34.5495 101.252 35.9883C99.6439 37.5286 97.7565 38.722 95.5898 39.5684C93.4401 40.3978 91.0195 40.8125 88.3281 40.8125C84.7227 40.8125 81.8112 39.8561 79.5938 37.9434C77.3763 36.0137 76.2676 33.39 76.2676 30.0723C76.2676 27.821 76.6823 25.7305 77.5117 23.8008C78.3581 21.8711 79.5345 20.1868 81.041 18.748C82.5306 17.3431 84.3587 16.2344 86.5254 15.4219C88.6921 14.5924 91.0365 14.1777 93.5586 14.1777C97.3841 14.1777 100.397 15.1172 102.598 16.9961C104.815 18.8581 105.924 21.4564 105.924 24.791ZM96.9863 21.9219C96.9863 19.9414 96.6478 18.4857 95.9707 17.5547C95.3105 16.6237 94.3457 16.1582 93.0762 16.1582C91.7728 16.1582 90.5794 16.6829 89.4961 17.7324C88.4128 18.765 87.5326 20.2884 86.8555 22.3027C86.263 23.9785 85.8398 25.7982 85.5859 27.7617C85.332 29.7083 85.2051 31.4518 85.2051 32.9922C85.2051 35.0404 85.5436 36.5299 86.2207 37.4609C86.8978 38.375 87.8796 38.832 89.166 38.832C90.554 38.832 91.7559 38.265 92.7715 37.1309C93.7871 35.9967 94.5911 34.6003 95.1836 32.9414C95.776 31.3164 96.2246 29.5221 96.5293 27.5586C96.834 25.5781 96.9863 23.6992 96.9863 21.9219ZM140.557 18.2148C140.557 19.4167 140.117 20.4831 139.236 21.4141C138.373 22.3451 137.298 22.8105 136.012 22.8105C134.945 22.8105 133.955 22.5736 133.041 22.0996C132.127 21.6087 131.323 21.1009 130.629 20.5762C130.29 20.7962 129.96 21.0163 129.639 21.2363C129.317 21.4395 128.648 21.9811 127.633 22.8613C128.411 24.8249 129.266 26.9831 130.197 29.3359C131.128 31.6888 131.831 33.3138 132.305 34.2109C132.863 35.2773 133.388 36.0306 133.879 36.4707C134.387 36.9108 135.267 37.1309 136.52 37.1309C136.96 37.1309 137.51 37.0462 138.17 36.877C138.83 36.7077 139.372 36.5384 139.795 36.3691L139.236 38.6543C137.561 39.3652 136.096 39.8815 134.844 40.2031C133.591 40.5247 132.474 40.6855 131.492 40.6855C131.018 40.6855 130.417 40.6517 129.689 40.584C128.979 40.5163 128.361 40.3639 127.836 40.127C127.176 39.8223 126.566 39.3991 126.008 38.8574C125.466 38.3158 124.933 37.4525 124.408 36.2676C123.663 34.5918 123.13 33.3138 122.809 32.4336C122.504 31.5365 122.072 30.3262 121.514 28.8027L119.838 30.377L117.654 40H109.25L116.715 7.67773C116.783 7.38997 116.833 7.11914 116.867 6.86523C116.901 6.61133 116.918 6.39974 116.918 6.23047C116.918 5.62109 116.816 5.13867 116.613 4.7832C116.41 4.42773 116.105 4.13997 115.699 3.91992C115.293 3.69987 114.827 3.54753 114.303 3.46289C113.778 3.37826 113.169 3.30208 112.475 3.23438L112.932 1.35547L126.312 0.695312L126.592 1.10156L120.498 27.5078H120.701C122.732 25.2227 124.332 23.4792 125.5 22.2773C126.685 21.0586 127.963 19.7806 129.334 18.4434C130.993 16.8353 132.313 15.735 133.295 15.1426C134.294 14.5332 135.394 14.2285 136.596 14.2285C137.814 14.2285 138.779 14.5671 139.49 15.2441C140.201 15.9212 140.557 16.9115 140.557 18.2148ZM176.84 25.502L174.631 12.375L166.404 25.502H176.84ZM172.777 40L173.209 38.1465C174.952 38.0111 176.307 37.7995 177.271 37.5117C178.253 37.207 178.744 36.877 178.744 36.5215C178.744 36.2168 178.727 35.9544 178.693 35.7344C178.66 35.5143 178.617 35.2604 178.566 34.9727L177.297 27.8887H164.881C164.475 28.515 163.958 29.3444 163.332 30.377C162.723 31.3926 162.206 32.2643 161.783 32.9922C161.14 34.1432 160.759 34.9303 160.641 35.3535C160.539 35.7767 160.488 36.0475 160.488 36.166C160.488 36.6738 160.886 37.097 161.682 37.4355C162.477 37.7572 163.696 37.9941 165.338 38.1465L164.906 40H149.773L150.205 38.1465C150.696 38.1126 151.314 38.028 152.059 37.8926C152.803 37.7572 153.43 37.554 153.938 37.2832C154.648 36.9108 155.317 36.4284 155.943 35.8359C156.57 35.2435 157.154 34.5241 157.695 33.6777C161.132 28.3965 164.288 23.5215 167.166 19.0527C170.044 14.5671 173.378 9.37044 177.17 3.46289H182.197C183.501 11.0462 184.576 17.3177 185.422 22.2773C186.285 27.237 187.038 31.3841 187.682 34.7188C187.766 35.2266 187.927 35.6921 188.164 36.1152C188.418 36.5215 188.816 36.9108 189.357 37.2832C189.764 37.554 190.255 37.7572 190.83 37.8926C191.423 38.028 191.973 38.1126 192.48 38.1465L192.049 40H172.777ZM226.453 23.9531C226.453 26.2214 226.047 28.388 225.234 30.4531C224.439 32.5013 223.347 34.2786 221.959 35.7852C220.52 37.3424 218.904 38.5443 217.109 39.3906C215.315 40.237 213.335 40.6602 211.168 40.6602C209.543 40.6602 208.231 40.4993 207.232 40.1777C206.251 39.873 205.396 39.4329 204.668 38.8574L203.119 45.6113C203.068 45.8145 203.018 46.0514 202.967 46.3223C202.916 46.61 202.891 46.8132 202.891 46.9316C202.891 47.321 202.975 47.6764 203.145 47.998C203.314 48.3197 203.568 48.5566 203.906 48.709C204.279 48.8783 204.88 49.0391 205.709 49.1914C206.538 49.3607 207.224 49.4622 207.766 49.4961L207.359 51.2734H189.027L189.434 49.4961C189.874 49.4622 190.424 49.3945 191.084 49.293C191.744 49.2083 192.243 49.1152 192.582 49.0137C193.158 48.8275 193.598 48.5312 193.902 48.125C194.207 47.7357 194.427 47.2025 194.562 46.5254L199.59 24.3848C199.691 23.8939 199.818 23.2676 199.971 22.5059C200.14 21.7441 200.225 21.1178 200.225 20.627C200.225 19.7298 200.038 19.0866 199.666 18.6973C199.294 18.291 198.557 18.0879 197.457 18.0879C196.949 18.0879 196.399 18.1725 195.807 18.3418C195.214 18.5111 194.723 18.6719 194.334 18.8242L194.893 16.5391C196.264 15.9805 197.576 15.5065 198.828 15.1172C200.081 14.7109 201.266 14.5078 202.383 14.5078C203.314 14.5078 204.135 14.6009 204.846 14.7871C205.557 14.9564 206.183 15.2357 206.725 15.625C207.182 15.9466 207.554 16.3359 207.842 16.793C208.146 17.25 208.4 17.7155 208.604 18.1895H208.807C210.364 16.8353 211.879 15.8366 213.352 15.1934C214.824 14.5501 216.238 14.2285 217.592 14.2285C220.537 14.2285 222.746 15.1003 224.219 16.8438C225.708 18.5703 226.453 20.9401 226.453 23.9531ZM215.154 33.957C215.882 32.4844 216.432 30.9355 216.805 29.3105C217.177 27.6855 217.363 25.8659 217.363 23.8516C217.363 23.0221 217.304 22.2604 217.186 21.5664C217.067 20.8555 216.855 20.2461 216.551 19.7383C216.246 19.2135 215.831 18.8073 215.307 18.5195C214.799 18.2318 214.156 18.0879 213.377 18.0879C212.48 18.0879 211.6 18.3672 210.736 18.9258C209.873 19.4844 209.238 20.0091 208.832 20.5L205.684 34.4395C205.684 35.6074 206.022 36.5807 206.699 37.3594C207.376 38.1211 208.35 38.502 209.619 38.502C210.669 38.502 211.676 38.0957 212.641 37.2832C213.622 36.4707 214.46 35.362 215.154 33.957ZM260.934 23.9531C260.934 26.2214 260.527 28.388 259.715 30.4531C258.919 32.5013 257.827 34.2786 256.439 35.7852C255.001 37.3424 253.384 38.5443 251.59 39.3906C249.796 40.237 247.815 40.6602 245.648 40.6602C244.023 40.6602 242.712 40.4993 241.713 40.1777C240.731 39.873 239.876 39.4329 239.148 38.8574L237.6 45.6113C237.549 45.8145 237.498 46.0514 237.447 46.3223C237.396 46.61 237.371 46.8132 237.371 46.9316C237.371 47.321 237.456 47.6764 237.625 47.998C237.794 48.3197 238.048 48.5566 238.387 48.709C238.759 48.8783 239.36 49.0391 240.189 49.1914C241.019 49.3607 241.704 49.4622 242.246 49.4961L241.84 51.2734H223.508L223.914 49.4961C224.354 49.4622 224.904 49.3945 225.564 49.293C226.225 49.2083 226.724 49.1152 227.062 49.0137C227.638 48.8275 228.078 48.5312 228.383 48.125C228.688 47.7357 228.908 47.2025 229.043 46.5254L234.07 24.3848C234.172 23.8939 234.299 23.2676 234.451 22.5059C234.62 21.7441 234.705 21.1178 234.705 20.627C234.705 19.7298 234.519 19.0866 234.146 18.6973C233.774 18.291 233.038 18.0879 231.938 18.0879C231.43 18.0879 230.88 18.1725 230.287 18.3418C229.695 18.5111 229.204 18.6719 228.814 18.8242L229.373 16.5391C230.744 15.9805 232.056 15.5065 233.309 15.1172C234.561 14.7109 235.746 14.5078 236.863 14.5078C237.794 14.5078 238.615 14.6009 239.326 14.7871C240.037 14.9564 240.663 15.2357 241.205 15.625C241.662 15.9466 242.035 16.3359 242.322 16.793C242.627 17.25 242.881 17.7155 243.084 18.1895H243.287C244.844 16.8353 246.359 15.8366 247.832 15.1934C249.305 14.5501 250.718 14.2285 252.072 14.2285C255.018 14.2285 257.227 15.1003 258.699 16.8438C260.189 18.5703 260.934 20.9401 260.934 23.9531ZM249.635 33.957C250.363 32.4844 250.913 30.9355 251.285 29.3105C251.658 27.6855 251.844 25.8659 251.844 23.8516C251.844 23.0221 251.785 22.2604 251.666 21.5664C251.548 20.8555 251.336 20.2461 251.031 19.7383C250.727 19.2135 250.312 18.8073 249.787 18.5195C249.279 18.2318 248.636 18.0879 247.857 18.0879C246.96 18.0879 246.08 18.3672 245.217 18.9258C244.354 19.4844 243.719 20.0091 243.312 20.5L240.164 34.4395C240.164 35.6074 240.503 36.5807 241.18 37.3594C241.857 38.1211 242.83 38.502 244.1 38.502C245.149 38.502 246.156 38.0957 247.121 37.2832C248.103 36.4707 248.941 35.362 249.635 33.957Z" fill="#DD48A1"/>
</svg>
